<svg width="317" height="69" viewBox="0 0 317 69" fill="none" xmlns="http://www.w3.org/2000/svg">
<rect width="317" height="69" rx="20" fill="#FFC602"/>
<path d="M44.7 34C44.7 32.6267 45.0067 31.4 45.62 30.32C46.2467 29.2267 47.0933 28.38 48.16 27.78C49.24 27.1667 50.4467 26.86 51.78 26.86C53.34 26.86 54.7067 27.26 55.88 28.06C57.0533 28.86 57.8733 29.9667 58.34 31.38H55.12C54.8 30.7133 54.3467 30.2133 53.76 29.88C53.1867 29.5467 52.52 29.38 51.76 29.38C50.9467 29.38 50.22 29.5733 49.58 29.96C48.9533 30.3333 48.46 30.8667 48.1 31.56C47.7533 32.2533 47.58 33.0667 47.58 34C47.58 34.92 47.7533 35.7333 48.1 36.44C48.46 37.1333 48.9533 37.6733 49.58 38.06C50.22 38.4333 50.9467 38.62 51.76 38.62C52.52 38.62 53.1867 38.4533 53.76 38.12C54.3467 37.7733 54.8 37.2667 55.12 36.6H58.34C57.8733 38.0267 57.0533 39.14 55.88 39.94C54.72 40.7267 53.3533 41.12 51.78 41.12C50.4467 41.12 49.24 40.82 48.16 40.22C47.0933 39.6067 46.2467 38.76 45.62 37.68C45.0067 36.6 44.7 35.3733 44.7 34ZM65.6516 41.18C64.5849 41.18 63.6249 40.9467 62.7716 40.48C61.9182 40 61.2449 39.3267 60.7516 38.46C60.2716 37.5933 60.0316 36.5933 60.0316 35.46C60.0316 34.3267 60.2782 33.3267 60.7716 32.46C61.2782 31.5933 61.9649 30.9267 62.8316 30.46C63.6982 29.98 64.6649 29.74 65.7316 29.74C66.7982 29.74 67.7649 29.98 68.6316 30.46C69.4982 30.9267 70.1782 31.5933 70.6716 32.46C71.1782 33.3267 71.4316 34.3267 71.4316 35.46C71.4316 36.5933 71.1716 37.5933 70.6516 38.46C70.1449 39.3267 69.4516 40 68.5716 40.48C67.7049 40.9467 66.7316 41.18 65.6516 41.18ZM65.6516 38.74C66.1582 38.74 66.6316 38.62 67.0716 38.38C67.5249 38.1267 67.8849 37.7533 68.1516 37.26C68.4182 36.7667 68.5516 36.1667 68.5516 35.46C68.5516 34.4067 68.2716 33.6 67.7116 33.04C67.1649 32.4667 66.4916 32.18 65.6916 32.18C64.8916 32.18 64.2182 32.4667 63.6716 33.04C63.1382 33.6 62.8716 34.4067 62.8716 35.46C62.8716 36.5133 63.1316 37.3267 63.6516 37.9C64.1849 38.46 64.8516 38.74 65.6516 38.74ZM76.2855 31.54C76.6455 31.0067 77.1388 30.5733 77.7655 30.24C78.4055 29.9067 79.1321 29.74 79.9455 29.74C80.8921 29.74 81.7455 29.9733 82.5055 30.44C83.2788 30.9067 83.8855 31.5733 84.3255 32.44C84.7788 33.2933 85.0055 34.2867 85.0055 35.42C85.0055 36.5533 84.7788 37.56 84.3255 38.44C83.8855 39.3067 83.2788 39.98 82.5055 40.46C81.7455 40.94 80.8921 41.18 79.9455 41.18C79.1188 41.18 78.3921 41.02 77.7655 40.7C77.1521 40.3667 76.6588 39.94 76.2855 39.42V41H73.4855V26.2H76.2855V31.54ZM82.1455 35.42C82.1455 34.7533 82.0055 34.18 81.7255 33.7C81.4588 33.2067 81.0988 32.8333 80.6455 32.58C80.2055 32.3267 79.7255 32.2 79.2055 32.2C78.6988 32.2 78.2188 32.3333 77.7655 32.6C77.3255 32.8533 76.9655 33.2267 76.6855 33.72C76.4188 34.2133 76.2855 34.7933 76.2855 35.46C76.2855 36.1267 76.4188 36.7067 76.6855 37.2C76.9655 37.6933 77.3255 38.0733 77.7655 38.34C78.2188 38.5933 78.6988 38.72 79.2055 38.72C79.7255 38.72 80.2055 38.5867 80.6455 38.32C81.0988 38.0533 81.4588 37.6733 81.7255 37.18C82.0055 36.6867 82.1455 36.1 82.1455 35.42ZM86.3202 35.42C86.3202 34.3 86.5402 33.3067 86.9802 32.44C87.4335 31.5733 88.0402 30.9067 88.8002 30.44C89.5735 29.9733 90.4335 29.74 91.3802 29.74C92.2068 29.74 92.9268 29.9067 93.5402 30.24C94.1668 30.5733 94.6668 30.9933 95.0402 31.5V29.92H97.8602V41H95.0402V39.38C94.6802 39.9 94.1802 40.3333 93.5402 40.68C92.9135 41.0133 92.1868 41.18 91.3602 41.18C90.4268 41.18 89.5735 40.94 88.8002 40.46C88.0402 39.98 87.4335 39.3067 86.9802 38.44C86.5402 37.56 86.3202 36.5533 86.3202 35.42ZM95.0402 35.46C95.0402 34.78 94.9068 34.2 94.6402 33.72C94.3735 33.2267 94.0135 32.8533 93.5602 32.6C93.1068 32.3333 92.6202 32.2 92.1002 32.2C91.5802 32.2 91.1002 32.3267 90.6602 32.58C90.2202 32.8333 89.8602 33.2067 89.5802 33.7C89.3135 34.18 89.1802 34.7533 89.1802 35.42C89.1802 36.0867 89.3135 36.6733 89.5802 37.18C89.8602 37.6733 90.2202 38.0533 90.6602 38.32C91.1135 38.5867 91.5935 38.72 92.1002 38.72C92.6202 38.72 93.1068 38.5933 93.5602 38.34C94.0135 38.0733 94.3735 37.7 94.6402 37.22C94.9068 36.7267 95.0402 36.14 95.0402 35.46ZM114.86 27.04V29.3H111.14V41H108.34V29.3H104.62V27.04H114.86ZM119.703 31.64C120.063 31.0533 120.53 30.5933 121.103 30.26C121.69 29.9267 122.357 29.76 123.103 29.76V32.7H122.363C121.483 32.7 120.817 32.9067 120.363 33.32C119.923 33.7333 119.703 34.4533 119.703 35.48V41H116.903V29.92H119.703V31.64ZM124.269 35.42C124.269 34.3 124.489 33.3067 124.929 32.44C125.383 31.5733 125.989 30.9067 126.749 30.44C127.523 29.9733 128.383 29.74 129.329 29.74C130.156 29.74 130.876 29.9067 131.489 30.24C132.116 30.5733 132.616 30.9933 132.989 31.5V29.92H135.809V41H132.989V39.38C132.629 39.9 132.129 40.3333 131.489 40.68C130.863 41.0133 130.136 41.18 129.309 41.18C128.376 41.18 127.523 40.94 126.749 40.46C125.989 39.98 125.383 39.3067 124.929 38.44C124.489 37.56 124.269 36.5533 124.269 35.42ZM132.989 35.46C132.989 34.78 132.856 34.2 132.589 33.72C132.323 33.2267 131.963 32.8533 131.509 32.6C131.056 32.3333 130.569 32.2 130.049 32.2C129.529 32.2 129.049 32.3267 128.609 32.58C128.169 32.8333 127.809 33.2067 127.529 33.7C127.263 34.18 127.129 34.7533 127.129 35.42C127.129 36.0867 127.263 36.6733 127.529 37.18C127.809 37.6733 128.169 38.0533 128.609 38.32C129.063 38.5867 129.543 38.72 130.049 38.72C130.569 38.72 131.056 38.5933 131.509 38.34C131.963 38.0733 132.323 37.7 132.589 37.22C132.856 36.7267 132.989 36.14 132.989 35.46ZM137.824 35.46C137.824 34.3133 138.057 33.3133 138.524 32.46C138.991 31.5933 139.637 30.9267 140.464 30.46C141.291 29.98 142.237 29.74 143.304 29.74C144.677 29.74 145.811 30.0867 146.704 30.78C147.611 31.46 148.217 32.42 148.524 33.66H145.504C145.344 33.18 145.071 32.8067 144.684 32.54C144.311 32.26 143.844 32.12 143.284 32.12C142.484 32.12 141.851 32.4133 141.384 33C140.917 33.5733 140.684 34.3933 140.684 35.46C140.684 36.5133 140.917 37.3333 141.384 37.92C141.851 38.4933 142.484 38.78 143.284 38.78C144.417 38.78 145.157 38.2733 145.504 37.26H148.524C148.217 38.46 147.611 39.4133 146.704 40.12C145.797 40.8267 144.664 41.18 143.304 41.18C142.237 41.18 141.291 40.9467 140.464 40.48C139.637 40 138.991 39.3333 138.524 38.48C138.057 37.6133 137.824 36.6067 137.824 35.46ZM157.135 41L153.375 36.28V41H150.575V26.2H153.375V34.62L157.095 29.92H160.735L155.855 35.48L160.775 41H157.135ZM166.495 41.18C165.588 41.18 164.775 41.02 164.055 40.7C163.335 40.3667 162.762 39.92 162.335 39.36C161.922 38.8 161.695 38.18 161.655 37.5H164.475C164.528 37.9267 164.735 38.28 165.095 38.56C165.468 38.84 165.928 38.98 166.475 38.98C167.008 38.98 167.422 38.8733 167.715 38.66C168.022 38.4467 168.175 38.1733 168.175 37.84C168.175 37.48 167.988 37.2133 167.615 37.04C167.255 36.8533 166.675 36.6533 165.875 36.44C165.048 36.24 164.368 36.0333 163.835 35.82C163.315 35.6067 162.862 35.28 162.475 34.84C162.102 34.4 161.915 33.8067 161.915 33.06C161.915 32.4467 162.088 31.8867 162.435 31.38C162.795 30.8733 163.302 30.4733 163.955 30.18C164.622 29.8867 165.402 29.74 166.295 29.74C167.615 29.74 168.668 30.0733 169.455 30.74C170.242 31.3933 170.675 32.28 170.755 33.4H168.075C168.035 32.96 167.848 32.6133 167.515 32.36C167.195 32.0933 166.762 31.96 166.215 31.96C165.708 31.96 165.315 32.0533 165.035 32.24C164.768 32.4267 164.635 32.6867 164.635 33.02C164.635 33.3933 164.822 33.68 165.195 33.88C165.568 34.0667 166.148 34.26 166.935 34.46C167.735 34.66 168.395 34.8667 168.915 35.08C169.435 35.2933 169.882 35.6267 170.255 36.08C170.642 36.52 170.842 37.1067 170.855 37.84C170.855 38.48 170.675 39.0533 170.315 39.56C169.968 40.0667 169.462 40.4667 168.795 40.76C168.142 41.04 167.375 41.18 166.495 41.18ZM182.739 41.14C181.766 41.14 180.886 40.9733 180.099 40.64C179.326 40.3067 178.712 39.8267 178.259 39.2C177.806 38.5733 177.572 37.8333 177.559 36.98H180.559C180.599 37.5533 180.799 38.0067 181.159 38.34C181.532 38.6733 182.039 38.84 182.679 38.84C183.332 38.84 183.846 38.6867 184.219 38.38C184.592 38.06 184.779 37.6467 184.779 37.14C184.779 36.7267 184.652 36.3867 184.399 36.12C184.146 35.8533 183.826 35.6467 183.439 35.5C183.066 35.34 182.546 35.1667 181.879 34.98C180.972 34.7133 180.232 34.4533 179.659 34.2C179.099 33.9333 178.612 33.54 178.199 33.02C177.799 32.4867 177.599 31.78 177.599 30.9C177.599 30.0733 177.806 29.3533 178.219 28.74C178.632 28.1267 179.212 27.66 179.959 27.34C180.706 27.0067 181.559 26.84 182.519 26.84C183.959 26.84 185.126 27.1933 186.019 27.9C186.926 28.5933 187.426 29.5667 187.519 30.82H184.439C184.412 30.34 184.206 29.9467 183.819 29.64C183.446 29.32 182.946 29.16 182.319 29.16C181.772 29.16 181.332 29.3 180.999 29.58C180.679 29.86 180.519 30.2667 180.519 30.8C180.519 31.1733 180.639 31.4867 180.879 31.74C181.132 31.98 181.439 32.18 181.799 32.34C182.172 32.4867 182.692 32.66 183.359 32.86C184.266 33.1267 185.006 33.3933 185.579 33.66C186.152 33.9267 186.646 34.3267 187.059 34.86C187.472 35.3933 187.679 36.0933 187.679 36.96C187.679 37.7067 187.486 38.4 187.099 39.04C186.712 39.68 186.146 40.1933 185.399 40.58C184.652 40.9533 183.766 41.14 182.739 41.14ZM200.407 35.22C200.407 35.62 200.38 35.98 200.327 36.3H192.227C192.293 37.1 192.573 37.7267 193.067 38.18C193.56 38.6333 194.167 38.86 194.887 38.86C195.927 38.86 196.667 38.4133 197.107 37.52H200.127C199.807 38.5867 199.193 39.4667 198.287 40.16C197.38 40.84 196.267 41.18 194.947 41.18C193.88 41.18 192.92 40.9467 192.067 40.48C191.227 40 190.567 39.3267 190.087 38.46C189.62 37.5933 189.387 36.5933 189.387 35.46C189.387 34.3133 189.62 33.3067 190.087 32.44C190.553 31.5733 191.207 30.9067 192.047 30.44C192.887 29.9733 193.853 29.74 194.947 29.74C196 29.74 196.94 29.9667 197.767 30.42C198.607 30.8733 199.253 31.52 199.707 32.36C200.173 33.1867 200.407 34.14 200.407 35.22ZM197.507 34.42C197.493 33.7 197.233 33.1267 196.727 32.7C196.22 32.26 195.6 32.04 194.867 32.04C194.173 32.04 193.587 32.2533 193.107 32.68C192.64 33.0933 192.353 33.6733 192.247 34.42H197.507ZM209.01 41L205.25 36.28V41H202.45V26.2H205.25V34.62L208.97 29.92H212.61L207.73 35.48L212.65 41H209.01ZM213.41 35.42C213.41 34.3 213.63 33.3067 214.07 32.44C214.523 31.5733 215.13 30.9067 215.89 30.44C216.663 29.9733 217.523 29.74 218.47 29.74C219.297 29.74 220.017 29.9067 220.63 30.24C221.257 30.5733 221.757 30.9933 222.13 31.5V29.92H224.95V41H222.13V39.38C221.77 39.9 221.27 40.3333 220.63 40.68C220.003 41.0133 219.277 41.18 218.45 41.18C217.517 41.18 216.663 40.94 215.89 40.46C215.13 39.98 214.523 39.3067 214.07 38.44C213.63 37.56 213.41 36.5533 213.41 35.42ZM222.13 35.46C222.13 34.78 221.997 34.2 221.73 33.72C221.463 33.2267 221.103 32.8533 220.65 32.6C220.197 32.3333 219.71 32.2 219.19 32.2C218.67 32.2 218.19 32.3267 217.75 32.58C217.31 32.8333 216.95 33.2067 216.67 33.7C216.403 34.18 216.27 34.7533 216.27 35.42C216.27 36.0867 216.403 36.6733 216.67 37.18C216.95 37.6733 217.31 38.0533 217.75 38.32C218.203 38.5867 218.683 38.72 219.19 38.72C219.71 38.72 220.197 38.5933 220.65 38.34C221.103 38.0733 221.463 37.7 221.73 37.22C221.997 36.7267 222.13 36.14 222.13 35.46ZM230.485 31.64C230.845 31.0533 231.311 30.5933 231.885 30.26C232.471 29.9267 233.138 29.76 233.885 29.76V32.7H233.145C232.265 32.7 231.598 32.9067 231.145 33.32C230.705 33.7333 230.485 34.4533 230.485 35.48V41H227.685V29.92H230.485V31.64ZM235.051 35.42C235.051 34.3 235.271 33.3067 235.711 32.44C236.164 31.5733 236.771 30.9067 237.531 30.44C238.304 29.9733 239.164 29.74 240.111 29.74C240.937 29.74 241.657 29.9067 242.271 30.24C242.897 30.5733 243.397 30.9933 243.771 31.5V29.92H246.591V41H243.771V39.38C243.411 39.9 242.911 40.3333 242.271 40.68C241.644 41.0133 240.917 41.18 240.091 41.18C239.157 41.18 238.304 40.94 237.531 40.46C236.771 39.98 236.164 39.3067 235.711 38.44C235.271 37.56 235.051 36.5533 235.051 35.42ZM243.771 35.46C243.771 34.78 243.637 34.2 243.371 33.72C243.104 33.2267 242.744 32.8533 242.291 32.6C241.837 32.3333 241.351 32.2 240.831 32.2C240.311 32.2 239.831 32.3267 239.391 32.58C238.951 32.8333 238.591 33.2067 238.311 33.7C238.044 34.18 237.911 34.7533 237.911 35.42C237.911 36.0867 238.044 36.6733 238.311 37.18C238.591 37.6733 238.951 38.0533 239.391 38.32C239.844 38.5867 240.324 38.72 240.831 38.72C241.351 38.72 241.837 38.5933 242.291 38.34C242.744 38.0733 243.104 37.7 243.371 37.22C243.637 36.7267 243.771 36.14 243.771 35.46ZM255.465 29.76C256.785 29.76 257.852 30.18 258.665 31.02C259.479 31.8467 259.885 33.0067 259.885 34.5V41H257.085V34.88C257.085 34 256.865 33.3267 256.425 32.86C255.985 32.38 255.385 32.14 254.625 32.14C253.852 32.14 253.239 32.38 252.785 32.86C252.345 33.3267 252.125 34 252.125 34.88V41H249.325V29.92H252.125V31.3C252.499 30.82 252.972 30.4467 253.545 30.18C254.132 29.9 254.772 29.76 255.465 29.76ZM266.888 29.74C267.715 29.74 268.441 29.9067 269.068 30.24C269.695 30.56 270.188 30.98 270.548 31.5V29.92H273.368V41.08C273.368 42.1067 273.161 43.02 272.748 43.82C272.335 44.6333 271.715 45.2733 270.888 45.74C270.061 46.22 269.061 46.46 267.888 46.46C266.315 46.46 265.021 46.0933 264.008 45.36C263.008 44.6267 262.441 43.6267 262.308 42.36H265.088C265.235 42.8667 265.548 43.2667 266.028 43.56C266.521 43.8667 267.115 44.02 267.808 44.02C268.621 44.02 269.281 43.7733 269.788 43.28C270.295 42.8 270.548 42.0667 270.548 41.08V39.36C270.188 39.88 269.688 40.3133 269.048 40.66C268.421 41.0067 267.701 41.18 266.888 41.18C265.955 41.18 265.101 40.94 264.328 40.46C263.555 39.98 262.941 39.3067 262.488 38.44C262.048 37.56 261.828 36.5533 261.828 35.42C261.828 34.3 262.048 33.3067 262.488 32.44C262.941 31.5733 263.548 30.9067 264.308 30.44C265.081 29.9733 265.941 29.74 266.888 29.74ZM270.548 35.46C270.548 34.78 270.415 34.2 270.148 33.72C269.881 33.2267 269.521 32.8533 269.068 32.6C268.615 32.3333 268.128 32.2 267.608 32.2C267.088 32.2 266.608 32.3267 266.168 32.58C265.728 32.8333 265.368 33.2067 265.088 33.7C264.821 34.18 264.688 34.7533 264.688 35.42C264.688 36.0867 264.821 36.6733 265.088 37.18C265.368 37.6733 265.728 38.0533 266.168 38.32C266.621 38.5867 267.101 38.72 267.608 38.72C268.128 38.72 268.615 38.5933 269.068 38.34C269.521 38.0733 269.881 37.7 270.148 37.22C270.415 36.7267 270.548 36.14 270.548 35.46Z" fill="#00297B"/>
</svg>
