<svg width="250" height="69" viewBox="0 0 250 69" fill="none" xmlns="http://www.w3.org/2000/svg">
<rect width="236" height="69" rx="20" fill="#FFC602"/>
<path d="M39.7 35C39.7 33.6267 40.0067 32.4 40.62 31.32C41.2467 30.2267 42.0933 29.38 43.16 28.78C44.24 28.1667 45.4467 27.86 46.78 27.86C48.34 27.86 49.7067 28.26 50.88 29.06C52.0533 29.86 52.8733 30.9667 53.34 32.38H50.12C49.8 31.7133 49.3467 31.2133 48.76 30.88C48.1867 30.5467 47.52 30.38 46.76 30.38C45.9467 30.38 45.22 30.5733 44.58 30.96C43.9533 31.3333 43.46 31.8667 43.1 32.56C42.7533 33.2533 42.58 34.0667 42.58 35C42.58 35.92 42.7533 36.7333 43.1 37.44C43.46 38.1333 43.9533 38.6733 44.58 39.06C45.22 39.4333 45.9467 39.62 46.76 39.62C47.52 39.62 48.1867 39.4533 48.76 39.12C49.3467 38.7733 49.8 38.2667 50.12 37.6H53.34C52.8733 39.0267 52.0533 40.14 50.88 40.94C49.72 41.7267 48.3533 42.12 46.78 42.12C45.4467 42.12 44.24 41.82 43.16 41.22C42.0933 40.6067 41.2467 39.76 40.62 38.68C40.0067 37.6 39.7 36.3733 39.7 35ZM60.6516 42.18C59.5849 42.18 58.6249 41.9467 57.7716 41.48C56.9182 41 56.2449 40.3267 55.7516 39.46C55.2716 38.5933 55.0316 37.5933 55.0316 36.46C55.0316 35.3267 55.2782 34.3267 55.7716 33.46C56.2782 32.5933 56.9649 31.9267 57.8316 31.46C58.6982 30.98 59.6649 30.74 60.7316 30.74C61.7982 30.74 62.7649 30.98 63.6316 31.46C64.4982 31.9267 65.1782 32.5933 65.6716 33.46C66.1782 34.3267 66.4316 35.3267 66.4316 36.46C66.4316 37.5933 66.1716 38.5933 65.6516 39.46C65.1449 40.3267 64.4516 41 63.5716 41.48C62.7049 41.9467 61.7316 42.18 60.6516 42.18ZM60.6516 39.74C61.1582 39.74 61.6316 39.62 62.0716 39.38C62.5249 39.1267 62.8849 38.7533 63.1516 38.26C63.4182 37.7667 63.5516 37.1667 63.5516 36.46C63.5516 35.4067 63.2716 34.6 62.7116 34.04C62.1649 33.4667 61.4916 33.18 60.6916 33.18C59.8916 33.18 59.2182 33.4667 58.6716 34.04C58.1382 34.6 57.8716 35.4067 57.8716 36.46C57.8716 37.5133 58.1316 38.3267 58.6516 38.9C59.1849 39.46 59.8516 39.74 60.6516 39.74ZM71.2855 32.54C71.6455 32.0067 72.1388 31.5733 72.7655 31.24C73.4055 30.9067 74.1321 30.74 74.9455 30.74C75.8921 30.74 76.7455 30.9733 77.5055 31.44C78.2788 31.9067 78.8855 32.5733 79.3255 33.44C79.7788 34.2933 80.0055 35.2867 80.0055 36.42C80.0055 37.5533 79.7788 38.56 79.3255 39.44C78.8855 40.3067 78.2788 40.98 77.5055 41.46C76.7455 41.94 75.8921 42.18 74.9455 42.18C74.1188 42.18 73.3921 42.02 72.7655 41.7C72.1521 41.3667 71.6588 40.94 71.2855 40.42V42H68.4855V27.2H71.2855V32.54ZM77.1455 36.42C77.1455 35.7533 77.0055 35.18 76.7255 34.7C76.4588 34.2067 76.0988 33.8333 75.6455 33.58C75.2055 33.3267 74.7255 33.2 74.2055 33.2C73.6988 33.2 73.2188 33.3333 72.7655 33.6C72.3255 33.8533 71.9655 34.2267 71.6855 34.72C71.4188 35.2133 71.2855 35.7933 71.2855 36.46C71.2855 37.1267 71.4188 37.7067 71.6855 38.2C71.9655 38.6933 72.3255 39.0733 72.7655 39.34C73.2188 39.5933 73.6988 39.72 74.2055 39.72C74.7255 39.72 75.2055 39.5867 75.6455 39.32C76.0988 39.0533 76.4588 38.6733 76.7255 38.18C77.0055 37.6867 77.1455 37.1 77.1455 36.42ZM81.3202 36.42C81.3202 35.3 81.5402 34.3067 81.9802 33.44C82.4335 32.5733 83.0402 31.9067 83.8002 31.44C84.5735 30.9733 85.4335 30.74 86.3802 30.74C87.2068 30.74 87.9268 30.9067 88.5402 31.24C89.1668 31.5733 89.6668 31.9933 90.0402 32.5V30.92H92.8602V42H90.0402V40.38C89.6802 40.9 89.1802 41.3333 88.5402 41.68C87.9135 42.0133 87.1868 42.18 86.3602 42.18C85.4268 42.18 84.5735 41.94 83.8002 41.46C83.0402 40.98 82.4335 40.3067 81.9802 39.44C81.5402 38.56 81.3202 37.5533 81.3202 36.42ZM90.0402 36.46C90.0402 35.78 89.9068 35.2 89.6402 34.72C89.3735 34.2267 89.0135 33.8533 88.5602 33.6C88.1068 33.3333 87.6202 33.2 87.1002 33.2C86.5802 33.2 86.1002 33.3267 85.6602 33.58C85.2202 33.8333 84.8602 34.2067 84.5802 34.7C84.3135 35.18 84.1802 35.7533 84.1802 36.42C84.1802 37.0867 84.3135 37.6733 84.5802 38.18C84.8602 38.6733 85.2202 39.0533 85.6602 39.32C86.1135 39.5867 86.5935 39.72 87.1002 39.72C87.6202 39.72 88.1068 39.5933 88.5602 39.34C89.0135 39.0733 89.3735 38.7 89.6402 38.22C89.9068 37.7267 90.0402 37.14 90.0402 36.46ZM105.18 42.14C104.207 42.14 103.327 41.9733 102.54 41.64C101.767 41.3067 101.154 40.8267 100.7 40.2C100.247 39.5733 100.014 38.8333 100 37.98H103C103.04 38.5533 103.24 39.0067 103.6 39.34C103.974 39.6733 104.48 39.84 105.12 39.84C105.774 39.84 106.287 39.6867 106.66 39.38C107.034 39.06 107.22 38.6467 107.22 38.14C107.22 37.7267 107.094 37.3867 106.84 37.12C106.587 36.8533 106.267 36.6467 105.88 36.5C105.507 36.34 104.987 36.1667 104.32 35.98C103.414 35.7133 102.674 35.4533 102.1 35.2C101.54 34.9333 101.054 34.54 100.64 34.02C100.24 33.4867 100.04 32.78 100.04 31.9C100.04 31.0733 100.247 30.3533 100.66 29.74C101.074 29.1267 101.654 28.66 102.4 28.34C103.147 28.0067 104 27.84 104.96 27.84C106.4 27.84 107.567 28.1933 108.46 28.9C109.367 29.5933 109.867 30.5667 109.96 31.82H106.88C106.854 31.34 106.647 30.9467 106.26 30.64C105.887 30.32 105.387 30.16 104.76 30.16C104.214 30.16 103.774 30.3 103.44 30.58C103.12 30.86 102.96 31.2667 102.96 31.8C102.96 32.1733 103.08 32.4867 103.32 32.74C103.574 32.98 103.88 33.18 104.24 33.34C104.614 33.4867 105.134 33.66 105.8 33.86C106.707 34.1267 107.447 34.3933 108.02 34.66C108.594 34.9267 109.087 35.3267 109.5 35.86C109.914 36.3933 110.12 37.0933 110.12 37.96C110.12 38.7067 109.927 39.4 109.54 40.04C109.154 40.68 108.587 41.1933 107.84 41.58C107.094 41.9533 106.207 42.14 105.18 42.14ZM122.848 36.22C122.848 36.62 122.821 36.98 122.768 37.3H114.668C114.735 38.1 115.015 38.7267 115.508 39.18C116.001 39.6333 116.608 39.86 117.328 39.86C118.368 39.86 119.108 39.4133 119.548 38.52H122.568C122.248 39.5867 121.635 40.4667 120.728 41.16C119.821 41.84 118.708 42.18 117.388 42.18C116.321 42.18 115.361 41.9467 114.508 41.48C113.668 41 113.008 40.3267 112.528 39.46C112.061 38.5933 111.828 37.5933 111.828 36.46C111.828 35.3133 112.061 34.3067 112.528 33.44C112.995 32.5733 113.648 31.9067 114.488 31.44C115.328 30.9733 116.295 30.74 117.388 30.74C118.441 30.74 119.381 30.9667 120.208 31.42C121.048 31.8733 121.695 32.52 122.148 33.36C122.615 34.1867 122.848 35.14 122.848 36.22ZM119.948 35.42C119.935 34.7 119.675 34.1267 119.168 33.7C118.661 33.26 118.041 33.04 117.308 33.04C116.615 33.04 116.028 33.2533 115.548 33.68C115.081 34.0933 114.795 34.6733 114.688 35.42H119.948ZM131.452 42L127.692 37.28V42H124.892V27.2H127.692V35.62L131.412 30.92H135.052L130.172 36.48L135.092 42H131.452ZM135.851 36.42C135.851 35.3 136.071 34.3067 136.511 33.44C136.965 32.5733 137.571 31.9067 138.331 31.44C139.105 30.9733 139.965 30.74 140.911 30.74C141.738 30.74 142.458 30.9067 143.071 31.24C143.698 31.5733 144.198 31.9933 144.571 32.5V30.92H147.391V42H144.571V40.38C144.211 40.9 143.711 41.3333 143.071 41.68C142.445 42.0133 141.718 42.18 140.891 42.18C139.958 42.18 139.105 41.94 138.331 41.46C137.571 40.98 136.965 40.3067 136.511 39.44C136.071 38.56 135.851 37.5533 135.851 36.42ZM144.571 36.46C144.571 35.78 144.438 35.2 144.171 34.72C143.905 34.2267 143.545 33.8533 143.091 33.6C142.638 33.3333 142.151 33.2 141.631 33.2C141.111 33.2 140.631 33.3267 140.191 33.58C139.751 33.8333 139.391 34.2067 139.111 34.7C138.845 35.18 138.711 35.7533 138.711 36.42C138.711 37.0867 138.845 37.6733 139.111 38.18C139.391 38.6733 139.751 39.0533 140.191 39.32C140.645 39.5867 141.125 39.72 141.631 39.72C142.151 39.72 142.638 39.5933 143.091 39.34C143.545 39.0733 143.905 38.7 144.171 38.22C144.438 37.7267 144.571 37.14 144.571 36.46ZM152.926 32.64C153.286 32.0533 153.753 31.5933 154.326 31.26C154.913 30.9267 155.579 30.76 156.326 30.76V33.7H155.586C154.706 33.7 154.039 33.9067 153.586 34.32C153.146 34.7333 152.926 35.4533 152.926 36.48V42H150.126V30.92H152.926V32.64ZM157.492 36.42C157.492 35.3 157.712 34.3067 158.152 33.44C158.605 32.5733 159.212 31.9067 159.972 31.44C160.745 30.9733 161.605 30.74 162.552 30.74C163.379 30.74 164.099 30.9067 164.712 31.24C165.339 31.5733 165.839 31.9933 166.212 32.5V30.92H169.032V42H166.212V40.38C165.852 40.9 165.352 41.3333 164.712 41.68C164.085 42.0133 163.359 42.18 162.532 42.18C161.599 42.18 160.745 41.94 159.972 41.46C159.212 40.98 158.605 40.3067 158.152 39.44C157.712 38.56 157.492 37.5533 157.492 36.42ZM166.212 36.46C166.212 35.78 166.079 35.2 165.812 34.72C165.545 34.2267 165.185 33.8533 164.732 33.6C164.279 33.3333 163.792 33.2 163.272 33.2C162.752 33.2 162.272 33.3267 161.832 33.58C161.392 33.8333 161.032 34.2067 160.752 34.7C160.485 35.18 160.352 35.7533 160.352 36.42C160.352 37.0867 160.485 37.6733 160.752 38.18C161.032 38.6733 161.392 39.0533 161.832 39.32C162.285 39.5867 162.765 39.72 163.272 39.72C163.792 39.72 164.279 39.5933 164.732 39.34C165.185 39.0733 165.545 38.7 165.812 38.22C166.079 37.7267 166.212 37.14 166.212 36.46ZM177.907 30.76C179.227 30.76 180.293 31.18 181.107 32.02C181.92 32.8467 182.327 34.0067 182.327 35.5V42H179.527V35.88C179.527 35 179.307 34.3267 178.867 33.86C178.427 33.38 177.827 33.14 177.067 33.14C176.293 33.14 175.68 33.38 175.227 33.86C174.787 34.3267 174.567 35 174.567 35.88V42H171.767V30.92H174.567V32.3C174.94 31.82 175.413 31.4467 175.987 31.18C176.573 30.9 177.213 30.76 177.907 30.76ZM189.329 30.74C190.156 30.74 190.883 30.9067 191.509 31.24C192.136 31.56 192.629 31.98 192.989 32.5V30.92H195.809V42.08C195.809 43.1067 195.603 44.02 195.189 44.82C194.776 45.6333 194.156 46.2733 193.329 46.74C192.503 47.22 191.503 47.46 190.329 47.46C188.756 47.46 187.463 47.0933 186.449 46.36C185.449 45.6267 184.883 44.6267 184.749 43.36H187.529C187.676 43.8667 187.989 44.2667 188.469 44.56C188.963 44.8667 189.556 45.02 190.249 45.02C191.063 45.02 191.723 44.7733 192.229 44.28C192.736 43.8 192.989 43.0667 192.989 42.08V40.36C192.629 40.88 192.129 41.3133 191.489 41.66C190.863 42.0067 190.143 42.18 189.329 42.18C188.396 42.18 187.543 41.94 186.769 41.46C185.996 40.98 185.383 40.3067 184.929 39.44C184.489 38.56 184.269 37.5533 184.269 36.42C184.269 35.3 184.489 34.3067 184.929 33.44C185.383 32.5733 185.989 31.9067 186.749 31.44C187.523 30.9733 188.383 30.74 189.329 30.74ZM192.989 36.46C192.989 35.78 192.856 35.2 192.589 34.72C192.323 34.2267 191.963 33.8533 191.509 33.6C191.056 33.3333 190.569 33.2 190.049 33.2C189.529 33.2 189.049 33.3267 188.609 33.58C188.169 33.8333 187.809 34.2067 187.529 34.7C187.263 35.18 187.129 35.7533 187.129 36.42C187.129 37.0867 187.263 37.6733 187.529 38.18C187.809 38.6733 188.169 39.0533 188.609 39.32C189.063 39.5867 189.543 39.72 190.049 39.72C190.569 39.72 191.056 39.5933 191.509 39.34C191.963 39.0733 192.323 38.7 192.589 38.22C192.856 37.7267 192.989 37.14 192.989 36.46Z" fill="#00297B"/>
<circle cx="232" cy="35" r="18" fill="#00297B"/>
<path d="M225 36L236.86 36L233.23 40.36C233.06 40.5642 232.979 40.8275 233.003 41.0919C233.027 41.3563 233.156 41.6002 233.36 41.77C233.564 41.9397 233.827 42.0214 234.092 41.997C234.356 41.9726 234.6 41.8442 234.77 41.64L239.77 35.64C239.804 35.5922 239.834 35.5421 239.86 35.49C239.86 35.44 239.86 35.41 239.93 35.36C239.975 35.2453 239.999 35.1233 240 35C239.999 34.8767 239.975 34.7546 239.93 34.64C239.93 34.59 239.93 34.56 239.86 34.51C239.834 34.4578 239.804 34.4077 239.77 34.36L234.77 28.36C234.676 28.2471 234.558 28.1563 234.425 28.0941C234.292 28.0319 234.147 27.9997 234 28C233.766 27.9995 233.54 28.0809 233.36 28.23C233.259 28.3139 233.175 28.417 233.114 28.5334C233.052 28.6497 233.015 28.777 233.002 28.908C232.99 29.039 233.004 29.171 233.043 29.2966C233.082 29.4223 233.146 29.5389 233.23 29.64L236.86 34L225 34C224.735 34 224.48 34.1053 224.293 34.2929C224.105 34.4804 224 34.7348 224 35C224 35.2652 224.105 35.5195 224.293 35.7071C224.48 35.8946 224.735 36 225 36Z" fill="white"/>
</svg>
