<svg width="37" height="37" viewBox="0 0 37 37" fill="none" xmlns="http://www.w3.org/2000/svg">
<path d="M32.5642 21.5034C34.4867 13.4723 29.5347 5.40332 21.5036 3.48081C13.4725 1.55829 5.40353 6.51029 3.48101 14.5414C1.5585 22.5725 6.5105 30.6415 14.5416 32.564C22.5727 34.4865 30.6417 29.5345 32.5642 21.5034Z" fill="white"/>
<path fill-rule="evenodd" clip-rule="evenodd" d="M21.5472 15.7247H19.3276V14.2498C19.4882 12.8529 21.7954 13.1206 21.7954 13.1206V13.0233V13.0135V10.7209C21.7175 10.7015 17.2054 9.63064 16.3147 13.0622C16.3147 13.0622 16.3147 13.0622 16.3147 13.0671C16.3147 13.0768 16.3098 13.0817 16.3098 13.0914C16.1686 13.5197 16.1784 15.4862 16.1784 15.7296H14.2557V18.358H16.3001V25.5034H19.2789V18.3531H21.5569L21.8149 15.7247H21.5472Z" fill="#00297B"/>
</svg>
