<svg width="36" height="36" viewBox="0 0 36 36" fill="none" xmlns="http://www.w3.org/2000/svg">
<path d="M32.5403 21.4242C34.438 13.3874 29.4613 5.33374 21.4244 3.43601C13.3875 1.53827 5.33389 6.51504 3.43616 14.5519C1.53842 22.5888 6.51517 30.6424 14.5521 32.5402C22.5889 34.4379 30.6426 29.4611 32.5403 21.4242Z" fill="white"/>
<path fill-rule="evenodd" clip-rule="evenodd" d="M14.0339 23.9621H10.9479V13.9886H14.0339V23.9621ZM12.4763 12.6793C11.4687 12.6793 10.651 11.8567 10.651 10.8394C10.651 9.82211 11.4687 8.99951 12.4763 8.99951C13.4839 8.99951 14.3016 9.82211 14.3016 10.8394C14.3016 11.8567 13.4839 12.6793 12.4763 12.6793ZM25.6038 23.9621H22.5325C22.5325 23.9621 22.5325 20.1606 22.5325 18.7247C22.5325 17.2888 21.9873 16.4857 20.8532 16.4857C19.6168 16.4857 18.9743 17.318 18.9743 18.7247C18.9743 20.2628 18.9743 23.9621 18.9743 23.9621H16.0149V13.9886H18.9743V15.3321C18.9743 15.3321 19.8651 13.682 21.9776 13.682C24.09 13.682 25.6038 14.9719 25.6038 17.6441C25.6038 20.3163 25.6038 23.9621 25.6038 23.9621Z" fill="#00297B"/>
</svg>
