<svg width="37" height="36" viewBox="0 0 37 36" fill="none" xmlns="http://www.w3.org/2000/svg">
<path d="M33.2149 21.4247C35.1126 13.3878 30.1358 5.33423 22.0989 3.43649C14.062 1.53876 6.00845 6.51553 4.11072 14.5524C2.21298 22.5893 7.18973 30.6429 15.2266 32.5406C23.2635 34.4384 31.3171 29.4616 33.2149 21.4247Z" fill="white"/>
<path fill-rule="evenodd" clip-rule="evenodd" d="M24.6163 14.9163C24.811 19.2288 21.5937 24.0427 15.8987 24.0427C14.1659 24.0427 12.5548 23.5365 11.1968 22.6652C12.8225 22.8551 14.4482 22.4073 15.7381 21.3948C14.3947 21.3705 13.2606 20.4846 12.8712 19.2629C13.3531 19.3554 13.8252 19.3261 14.2584 19.2093C12.7836 18.9124 11.7663 17.5836 11.7955 16.1623C12.2092 16.3911 12.6813 16.5322 13.1876 16.5468C11.8198 15.6318 11.4353 13.8308 12.2384 12.4533C13.7522 14.3078 16.0107 15.5295 18.5612 15.661C18.1134 13.7432 19.5688 11.8936 21.5498 11.8936C22.4308 11.8936 23.2291 12.2683 23.7889 12.8622C24.4898 12.7259 25.142 12.4679 25.7359 12.1175C25.5071 12.833 25.0203 13.4365 24.3876 13.8162C25.0057 13.7432 25.5996 13.5777 26.1496 13.3343C25.7359 13.9476 25.215 14.4879 24.6163 14.9163Z" fill="#00297B"/>
</svg>
