<svg width="34" height="28" viewBox="0 0 34 28" fill="none" xmlns="http://www.w3.org/2000/svg">
<path d="M10.374 20L5.89402 12.216H3.45802V20H0.266016V0.539999H6.98602C8.47935 0.539999 9.73935 0.801332 10.766 1.324C11.8113 1.84667 12.586 2.54667 13.09 3.424C13.6127 4.30133 13.874 5.28133 13.874 6.364C13.874 7.63333 13.5007 8.79067 12.754 9.836C12.026 10.8627 10.8967 11.5627 9.36602 11.936L14.182 20H10.374ZM3.45802 9.668H6.98602C8.18068 9.668 9.07668 9.36933 9.67402 8.772C10.29 8.17467 10.598 7.372 10.598 6.364C10.598 5.356 10.2993 4.572 9.70202 4.012C9.10468 3.43333 8.19935 3.144 6.98602 3.144H3.45802V9.668ZM21.1494 6.84C21.6908 6.13067 22.4281 5.53333 23.3614 5.048C24.2948 4.56267 25.3494 4.32 26.5254 4.32C27.8694 4.32 29.0921 4.656 30.1934 5.328C31.3134 5.98133 32.1908 6.90533 32.8254 8.1C33.4601 9.29467 33.7774 10.6667 33.7774 12.216C33.7774 13.7653 33.4601 15.156 32.8254 16.388C32.1908 17.6013 31.3134 18.5533 30.1934 19.244C29.0921 19.916 27.8694 20.252 26.5254 20.252C25.3494 20.252 24.3041 20.0187 23.3894 19.552C22.4748 19.0667 21.7281 18.4693 21.1494 17.76V27.336H17.9574V4.572H21.1494V6.84ZM30.5294 12.216C30.5294 11.152 30.3054 10.2373 29.8574 9.472C29.4281 8.688 28.8494 8.1 28.1214 7.708C27.4121 7.29733 26.6468 7.092 25.8254 7.092C25.0228 7.092 24.2574 7.29733 23.5294 7.708C22.8201 8.11867 22.2414 8.716 21.7934 9.5C21.3641 10.284 21.1494 11.208 21.1494 12.272C21.1494 13.336 21.3641 14.2693 21.7934 15.072C22.2414 15.856 22.8201 16.4533 23.5294 16.864C24.2574 17.2747 25.0228 17.48 25.8254 17.48C26.6468 17.48 27.4121 17.2747 28.1214 16.864C28.8494 16.4347 29.4281 15.8187 29.8574 15.016C30.3054 14.2133 30.5294 13.28 30.5294 12.216Z" fill="#00297B"/>
</svg>
